<?xml version="1.0" encoding="UTF-8"?>
<svg version="1.1" xmlns="http://www.w3.org/2000/svg" width="512" height="512">
<path d="M0 0 C1.45108658 0.00273422 1.45108658 0.00273422 2.93148804 0.00552368 C17.26440977 0.05095174 31.21023917 0.55983928 45.3125 3.3125 C46.65803955 3.55395752 46.65803955 3.55395752 48.03076172 3.80029297 C107.84088904 14.62287989 165.35495829 48.68064457 202.3125 97.3125 C202.72918945 97.85277832 203.14587891 98.39305664 203.57519531 98.94970703 C211.2584873 108.9447116 218.00092968 119.40459036 224.3125 130.3125 C224.70679199 130.98974121 225.10108398 131.66698242 225.50732422 132.36474609 C238.68961173 155.2833756 247.29510918 180.85822563 252.625 206.6875 C252.77243652 207.39817627 252.91987305 208.10885254 253.07177734 208.84106445 C256.05713787 224.48358366 256.6873098 240.11919606 256.625 256 C256.62226578 257.45108658 256.62226578 257.45108658 256.61947632 258.93148804 C256.57404826 273.26440977 256.06516072 287.21023917 253.3125 301.3125 C253.15152832 302.20952637 252.99055664 303.10655273 252.82470703 304.03076172 C242.00212011 363.84088904 207.94435543 421.35495829 159.3125 458.3125 C158.77222168 458.72918945 158.23194336 459.14587891 157.67529297 459.57519531 C147.6802884 467.2584873 137.22040964 474.00092968 126.3125 480.3125 C125.63525879 480.70679199 124.95801758 481.10108398 124.26025391 481.50732422 C101.3416244 494.68961173 75.76677437 503.29510918 49.9375 508.625 C49.22682373 508.77243652 48.51614746 508.91987305 47.78393555 509.07177734 C32.14141634 512.05713787 16.50580394 512.6873098 0.625 512.625 C-0.34239105 512.62317719 -1.3097821 512.62135437 -2.30648804 512.61947632 C-16.63940977 512.57404826 -30.58523917 512.06516072 -44.6875 509.3125 C-45.58452637 509.15152832 -46.48155273 508.99055664 -47.40576172 508.82470703 C-107.21588904 498.00212011 -164.72995829 463.94435543 -201.6875 415.3125 C-202.10418945 414.77222168 -202.52087891 414.23194336 -202.95019531 413.67529297 C-210.6334873 403.6802884 -217.37592968 393.22040964 -223.6875 382.3125 C-224.08179199 381.63525879 -224.47608398 380.95801758 -224.88232422 380.26025391 C-238.06461173 357.3416244 -246.67010918 331.76677437 -252 305.9375 C-252.14743652 305.22682373 -252.29487305 304.51614746 -252.44677734 303.78393555 C-255.43213787 288.14141634 -256.0623098 272.50580394 -256 256.625 C-255.99817719 255.65760895 -255.99635437 254.6902179 -255.99447632 253.69351196 C-255.94904826 239.36059023 -255.44016072 225.41476083 -252.6875 211.3125 C-252.44604248 209.96696045 -252.44604248 209.96696045 -252.19970703 208.59423828 C-241.37712011 148.78411096 -207.31935543 91.27004171 -158.6875 54.3125 C-158.14722168 53.89581055 -157.60694336 53.47912109 -157.05029297 53.04980469 C-147.0552884 45.3665127 -136.59540964 38.62407032 -125.6875 32.3125 C-125.01025879 31.91820801 -124.33301758 31.52391602 -123.63525391 31.11767578 C-100.7166244 17.93538827 -75.14177437 9.32989082 -49.3125 4 C-48.60182373 3.85256348 -47.89114746 3.70512695 -47.15893555 3.55322266 C-31.51641634 0.56786213 -15.88080394 -0.0623098 0 0 Z " fill="#FE3501" transform="translate(255.6875,-0.3125)"/>
<path d="M0 0 C6.64895929 5.48998259 12.74781728 11.51112549 18.875 17.56640625 C19.43248932 18.11732374 19.98997864 18.66824123 20.56436157 19.2358532 C23.50385141 22.14297479 26.43941187 25.05400901 29.37255859 27.9675293 C31.79718082 30.37422652 34.23006977 32.77208566 36.67041016 35.1628418 C39.62893521 38.06135619 42.57263406 40.97416088 45.50616455 43.89796257 C46.62386766 45.00709561 47.74670624 46.11107817 48.87469482 47.20974922 C50.445119 48.74146394 51.99575942 50.29083559 53.54296875 51.84594727 C54.43008545 52.7227565 55.31720215 53.59956573 56.23120117 54.50294495 C58 57 58 57 57.86456299 59.64881897 C56.79173174 62.56638602 55.42408934 65.11644418 53.859375 67.8046875 C53.20694824 68.93463135 52.55452148 70.0645752 51.88232422 71.22875977 C51.17157866 72.44419024 50.46080325 73.65960326 49.75 74.875 C49.02409838 76.12835959 48.2990091 77.38218998 47.57470703 78.63647461 C46.10005486 81.18954974 44.62268093 83.74101858 43.14355469 86.29150391 C40.01566315 91.69341357 36.94307485 97.12645403 33.875 102.5625 C33.36807617 103.45759277 32.86115234 104.35268555 32.33886719 105.27490234 C28.82925514 111.48484298 25.41662891 117.73618032 22 124 C36.19 124 50.38 124 65 124 C65 131.79959544 64.97859247 139.10633392 64.125 146.7734375 C64.03621582 147.62628326 63.94743164 148.47912903 63.85595703 149.3578186 C63.57693592 152.03092303 63.28918204 154.7029774 63 157.375 C62.71194145 160.06854073 62.42590555 162.76225503 62.14404297 165.45645142 C61.96983262 167.1186229 61.79200626 168.78042102 61.60986328 170.44174194 C61.12936966 174.99174827 60.91486104 179.42454125 61 184 C61.35078613 183.36835938 61.70157227 182.73671875 62.06298828 182.0859375 C69.18256633 169.28130604 76.39055412 156.54402945 83.80371094 143.90673828 C88.91848228 135.17486727 93.90719715 126.37517504 98.8671875 117.5546875 C102.5518343 111.02156064 106.27868117 104.51230795 110 98 C95.48 98 80.96 98 66 98 C66.61875 91.296875 67.2375 84.59375 67.875 77.6875 C68.16093018 74.5796106 68.16093018 74.5796106 68.45263672 71.40893555 C69.5447492 59.59575098 70.72593679 47.79494457 72 36 C75.17779616 37.41027805 77.37106273 39.09510406 79.85980225 41.5116272 C80.61416061 42.24011368 81.36851898 42.96860016 82.14573669 43.71916199 C82.96357132 44.51905045 83.78140594 45.3189389 84.62402344 46.14306641 C85.49267532 46.98572556 86.36132721 47.8283847 87.25630188 48.69657898 C95.25681724 56.47362094 103.20736327 64.30253302 111.14100266 72.14774513 C116.99818019 77.93853074 122.88008441 83.70146649 128.79822707 89.4299475 C132.96651477 93.46913821 137.10334056 97.53894514 141.21874833 101.63199174 C143.6731078 104.07129705 146.13892525 106.49536693 148.63982391 108.88701248 C165.84722308 125.37509699 165.84722308 125.37509699 166.33667374 133.86034966 C166.20592077 136.99279287 165.68346864 139.94417418 165 143 C164.76778062 144.9271072 164.54410246 146.85530254 164.3359375 148.78515625 C164.03288801 150.54732685 163.71236033 152.30657511 163.375 154.0625 C163.19678711 155.02728271 163.01857422 155.99206543 162.83496094 156.98608398 C151.19398563 217.77620249 118.75965784 275.18539034 69 313 C68.45972168 313.41668945 67.91944336 313.83337891 67.36279297 314.26269531 C57.3677884 321.9459873 46.90790964 328.68842968 36 335 C35.32275879 335.39429199 34.64551758 335.78858398 33.94775391 336.19482422 C4.45172722 353.16028475 -38.11118549 369.71843814 -73 367 C-74.76874572 365.85224676 -74.76874572 365.85224676 -76.41074848 364.20449066 C-77.04423153 363.58096285 -77.67771458 362.95743505 -78.33039409 362.31501245 C-79.01230963 361.61853271 -79.69422516 360.92205297 -80.39680481 360.20446777 C-81.13203281 359.4735119 -81.8672608 358.74255603 -82.62476844 357.98944998 C-85.09498421 355.52749557 -87.54686187 353.04804602 -89.99926758 350.56835938 C-91.76245572 348.80376146 -93.52674442 347.04026265 -95.29205322 345.27778625 C-99.09509939 341.47588012 -102.89033462 337.6664274 -106.67872047 333.84992981 C-112.15609453 328.3319374 -117.64720731 322.82778746 -123.14178177 317.32692856 C-132.05574586 308.40201867 -140.95848474 299.46599784 -149.85424805 290.52294922 C-158.49617734 281.83513173 -167.14333745 273.15257608 -175.79760742 264.47705078 C-176.33096601 263.94237857 -176.8643246 263.40770636 -177.41384558 262.85683197 C-180.08955508 260.17459733 -182.76536798 257.49246587 -185.44123232 254.8103857 C-207.64354515 232.55623098 -229.8274857 210.28384596 -252 188 C-250.55805394 184.31727709 -248.93719419 180.90915571 -247.015625 177.44921875 C-246.41733887 176.3705957 -245.81905273 175.29197266 -245.20263672 174.18066406 C-244.55199985 173.01614078 -243.90111455 171.85175627 -243.25 170.6875 C-242.91808655 170.09175171 -242.5861731 169.49600342 -242.24420166 168.88220215 C-236.99304466 159.45843292 -231.61406636 150.11455962 -226.14941406 140.81274414 C-221.48775317 132.87058168 -216.93785411 124.86926691 -212.43701172 116.83496094 C-211.94217285 115.95356445 -211.44733398 115.07216797 -210.9375 114.1640625 C-210.51339844 113.40561035 -210.08929688 112.6471582 -209.65234375 111.86572266 C-207.15990018 107.54298291 -204.5672438 103.27873966 -202 99 C-216.19 98.67 -230.38 98.34 -245 98 C-245 91.19652531 -244.8311128 84.67138198 -244.1953125 77.93359375 C-244.11127167 77.01465836 -244.02723083 76.09572296 -243.94064331 75.14894104 C-243.76302177 73.22188339 -243.58307309 71.29503891 -243.40087891 69.3684082 C-243.12544456 66.44222299 -242.86111922 63.51517514 -242.59765625 60.58789062 C-242.42254461 58.70306267 -242.24678515 56.81829476 -242.0703125 54.93359375 C-241.99313995 54.07084335 -241.91596741 53.20809296 -241.8364563 52.31919861 C-241.29839201 46.74592503 -240.30980029 41.44516398 -239 36 C-232.64610069 41.18642465 -226.92869006 46.96884051 -221.16580963 52.78959084 C-219.36094326 54.61200151 -217.55242307 56.43071346 -215.74285889 58.24845886 C-210.60339017 63.4122609 -205.46973781 68.58181774 -200.34033203 73.75561523 C-197.19180541 76.93088057 -194.03845972 80.10129293 -190.88207245 83.26874352 C-189.68247066 84.47455647 -188.48477015 85.68226399 -187.28900909 86.89188576 C-185.62328882 88.57676475 -183.95155183 90.25544629 -182.27832031 91.93286133 C-181.78581284 92.4341304 -181.29330536 92.93539948 -180.78587341 93.45185852 C-178.51586475 95.71538609 -177.09279118 96.96906961 -174 98 C-172.6328125 100.203125 -172.6328125 100.203125 -171.125 103.25 C-166.49546331 112.18332772 -161.11978692 120.63225194 -155.76342773 129.14331055 C-145.15691708 146.32547601 -148 142.80888581 -148 169 C-109.39 169 -70.78 169 -31 169 C-31 159.43 -31 149.86 -31 140 C-28.53664728 133.89516934 -27.0848665 130.58271188 -23.3125 125.6875 C-22.59126953 124.64529297 -21.87003906 123.60308594 -21.12695312 122.52929688 C-19.74189438 120.53455931 -18.33363267 118.55565403 -16.8984375 116.59667969 C-12.44098922 110.49978927 -9.05606242 104.43343319 -6.375 97.375 C-6.07577637 96.59302246 -5.77655273 95.81104492 -5.46826172 95.00537109 C0.13017476 79.93596474 1.16106152 64.75650747 1.1328125 48.7890625 C1.13376923 47.5772934 1.13472595 46.36552429 1.13571167 45.11703491 C1.13638736 42.57753446 1.13457609 40.03803222 1.13037109 37.49853516 C1.12498595 33.61486966 1.13035129 29.73131833 1.13671875 25.84765625 C1.13605841 23.36979141 1.13477816 20.89192665 1.1328125 18.4140625 C1.13584885 16.67958359 1.13584885 16.67958359 1.13894653 14.9100647 C1.13579437 13.82808807 1.13264221 12.74611145 1.12939453 11.63134766 C1.12859894 10.6860318 1.12780334 9.74071594 1.12698364 8.76675415 C0.9899434 5.78088397 0.54549454 2.9364791 0 0 Z " fill="#C70023" transform="translate(346,145)"/>
<path d="M0 0 C3.37362109 3.41110577 5.58324766 7.53529491 7.7578125 11.77734375 C7.97695312 11.25785156 8.19609375 10.73835938 8.421875 10.203125 C11.35395496 3.75493289 15.03801353 -0.46705523 21.7578125 -3.22265625 C29.09103057 -4.12359447 35.7378111 -3.77606798 41.7578125 0.77734375 C46.1976838 5.02417717 48.84255741 9.40445275 49.3828125 15.52734375 C49.45757812 16.3265625 49.53234375 17.12578125 49.609375 17.94921875 C49.65835938 18.5525 49.70734375 19.15578125 49.7578125 19.77734375 C49.97695313 19.25785156 50.19609375 18.73835938 50.421875 18.203125 C53.36366467 11.73357942 57.03826801 7.57306664 63.7578125 4.77734375 C70.80369859 3.8364335 76.98701811 4.45871862 82.7578125 8.77734375 C88.6764625 14.34008384 90.88952027 19.45052194 91.3828125 27.58984375 C91.49496094 29.33201172 91.49496094 29.33201172 91.609375 31.109375 C91.65835938 31.98980469 91.70734375 32.87023437 91.7578125 33.77734375 C92.3146875 32.86984375 92.8715625 31.96234375 93.4453125 31.02734375 C96.49357338 26.74330143 99.89652792 23.79425969 104.7578125 21.77734375 C112.10835954 20.87427654 118.71599849 21.23895787 124.7578125 25.77734375 C131.48166026 32.50119151 133.09538913 38.49700555 133.14900208 47.69810486 C133.13518745 49.40601952 133.13518745 49.40601952 133.12109375 51.1484375 C133.12184151 52.94112816 133.12184151 52.94112816 133.12260437 54.77003479 C133.12026833 57.29747175 133.11056768 59.82491123 133.09399414 62.35229492 C133.07058359 66.17062868 133.07341514 69.98825414 133.08007812 73.80664062 C133.06055093 90.5007504 132.65193717 106.68202162 127.7578125 122.77734375 C127.43941406 123.89367187 127.12101563 125.01 126.79296875 126.16015625 C122.55279576 139.13806593 115.01869454 150.31441174 107.69897461 161.73632812 C97.29462231 178.03573855 100.69208474 174.6834488 99.7578125 201.77734375 C61.1478125 201.77734375 22.5378125 201.77734375 -17.2421875 201.77734375 C-17.5721875 192.86734375 -17.9021875 183.95734375 -18.2421875 174.77734375 C-21.596079 168.18655696 -24.36758638 162.91302461 -28.5859375 157.10058594 C-31.29375441 153.30229795 -33.69879702 149.32627111 -36.1171875 145.33984375 C-36.57335449 144.59726318 -37.02952148 143.85468262 -37.49951172 143.08959961 C-45.34462286 130.1974958 -50.70785163 117.60919276 -50.7109375 102.36328125 C-50.71855103 101.30879791 -50.72616455 100.25431458 -50.73400879 99.1678772 C-50.74474542 96.95438998 -50.74768934 94.74085238 -50.74316406 92.52734375 C-50.74218801 89.15408964 -50.78396387 85.78308515 -50.828125 82.41015625 C-50.83333028 80.24870262 -50.83602022 78.08724115 -50.8359375 75.92578125 C-50.85233276 74.92662689 -50.86872803 73.92747253 -50.88562012 72.89804077 C-50.81245761 65.44346236 -48.90256992 60.63489228 -43.76403809 55.21957397 C-40.6921258 52.43453695 -38.26197264 51.42241062 -34.2421875 50.77734375 C-34.26313477 49.66810547 -34.28408203 48.55886719 -34.30566406 47.41601562 C-34.37847217 43.27129196 -34.42413445 39.12662399 -34.46191406 34.98144531 C-34.48193709 33.19293691 -34.50916404 31.40449321 -34.54394531 29.61621094 C-34.59287705 27.03434213 -34.61524915 24.45334425 -34.6328125 21.87109375 C-34.65345764 21.08118042 -34.67410278 20.29126709 -34.69537354 19.47741699 C-34.6980543 12.73225471 -32.70636482 7.58323316 -28.2421875 2.5 C-27.5821875 1.95214844 -26.9221875 1.40429688 -26.2421875 0.83984375 C-25.5821875 0.27394531 -24.9221875 -0.29195313 -24.2421875 -0.875 C-17.45049108 -5.45143606 -6.48071431 -4.67750301 0 0 Z " fill="#FEC276" transform="translate(215.2421875,112.22265625)"/>
<path d="M0 0 C1.00550652 -0.0098568 1.00550652 -0.0098568 2.03132629 -0.01991272 C4.2491569 -0.03961663 6.46691976 -0.05130373 8.68481445 -0.0612793 C9.4443574 -0.06535482 10.20390034 -0.06943035 10.98645973 -0.07362938 C15.00919954 -0.09448093 19.03190536 -0.10878478 23.0546875 -0.11816406 C27.19616236 -0.12920746 31.33709681 -0.16358544 35.47838116 -0.20333576 C38.67414806 -0.22957018 41.86978775 -0.23786206 45.06565285 -0.24144554 C46.59138437 -0.24629642 48.11711078 -0.25786748 49.64273643 -0.27648354 C66.53438986 -0.46973531 66.53438986 -0.46973531 72.86405945 5.6245575 C77.73305635 11.13578421 78.76377806 15.23309886 78.6105957 22.4230957 C78.14455146 27.55686435 76.45604758 30.83116108 73.1730957 34.86450195 C66.54302594 40.31589264 60.88333741 41.76742905 52.3918457 41.56762695 C51.4709314 41.56196716 50.55001709 41.55630737 49.60119629 41.55047607 C46.68711263 41.52825431 43.77430174 41.47808578 40.8605957 41.42700195 C38.87363441 41.40691855 36.88665367 41.38867102 34.8996582 41.37231445 C30.05282071 41.32843625 25.20692328 41.25950884 20.3605957 41.17700195 C21.18805947 43.38481274 21.18805947 43.38481274 23.51855469 44.04321289 C24.45513916 44.32970703 25.39172363 44.61620117 26.35668945 44.91137695 C27.39116211 45.23879883 28.42563477 45.5662207 29.49145508 45.90356445 C31.65939034 46.57456155 33.82862455 47.24137927 35.99926758 47.90356445 C49.46048588 52.18328635 59.57252273 58.51978033 66.2355957 71.30200195 C69.73382144 78.5675477 70.6517867 84.86954271 70.5559082 92.8293457 C70.55389404 93.62828247 70.55187988 94.42721924 70.54980469 95.25036621 C70.53942279 98.2051374 70.51150084 101.15982608 70.4855957 104.11450195 C70.4443457 110.73512695 70.4030957 117.35575195 70.3605957 124.17700195 C89.5005957 124.17700195 108.6405957 124.17700195 128.3605957 124.17700195 C128.3605957 133.08700195 128.3605957 141.99700195 128.3605957 151.17700195 C90.0805957 151.17700195 51.8005957 151.17700195 12.3605957 151.17700195 C12.0305957 142.26700195 11.7005957 133.35700195 11.3605957 124.17700195 C8.0067042 117.58621516 5.23519683 112.31268281 1.0168457 106.50024414 C-1.6909712 102.70195616 -4.09601381 98.72592932 -6.5144043 94.73950195 C-6.97057129 93.99692139 -7.42673828 93.25434082 -7.89672852 92.48925781 C-15.74183966 79.597154 -21.10506842 67.00885096 -21.1081543 51.76293945 C-21.11576782 50.70845612 -21.12338135 49.65397278 -21.13122559 48.5675354 C-21.14196221 46.35404819 -21.14490614 44.14051058 -21.14038086 41.92700195 C-21.1394048 38.55374785 -21.18118067 35.18274335 -21.2253418 31.80981445 C-21.23054708 29.64836082 -21.23323702 27.48689935 -21.2331543 25.32543945 C-21.24954956 24.3262851 -21.26594482 23.32713074 -21.28283691 22.29769897 C-21.20999498 14.87578392 -19.35803048 9.91680165 -14.0904541 4.61923218 C-9.43843054 0.54668479 -6.02332832 0.04889288 0 0 Z " fill="#FED9A9" transform="translate(185.639404296875,162.822998046875)"/>
<path d="M0 0 C1.06276657 -0.00137466 2.12553314 -0.00274933 3.22050476 -0.00416565 C4.36058487 -0.00057037 5.50066498 0.0030249 6.67529297 0.00672913 C8.50583977 0.00651009 8.50583977 0.00651009 10.37336731 0.00628662 C13.6971925 0.00686122 17.0209545 0.01185389 20.34476852 0.01886058 C23.82676759 0.02513961 27.30876763 0.0257015 30.79077148 0.02688599 C37.37434141 0.02998594 43.9578946 0.03818122 50.54145718 0.04823548 C58.77747214 0.06053853 67.01348985 0.06598975 75.24951172 0.07142639 C89.93051432 0.08114748 104.61148043 0.10118278 119.29248047 0.12025452 C119.29248047 29.82025452 119.29248047 59.52025452 119.29248047 90.12025452 C88.37538106 90.16041818 88.37538106 90.16041818 73.08963966 90.17050838 C64.82700653 90.17604693 56.5643835 90.1830755 48.30175781 90.19569397 C41.75927441 90.2056807 35.21679864 90.21211743 28.67430782 90.21434301 C25.21213269 90.21564335 21.74997939 90.21868623 18.28781128 90.22598457 C14.41696777 90.23407775 10.54614536 90.23424309 6.67529297 90.23377991 C5.53521286 90.23737518 4.39513275 90.24097046 3.22050476 90.24467468 C1.6263549 90.24261269 1.6263549 90.24261269 0 90.24050903 C-0.91441864 90.24143083 -1.82883728 90.24235262 -2.77096558 90.24330235 C-6.43244068 90.08987879 -10.07113062 89.57480313 -13.70751953 89.12025452 C-13.70751953 60.08025452 -13.70751953 31.04025452 -13.70751953 1.12025452 C-4.70751953 -0.00474548 -4.70751953 -0.00474548 0 0 Z " fill="#403E43" transform="translate(203.70751953125,313.87974548339844)"/>
<path d="M0 0 C0 29.7 0 59.4 0 90 C-33.165 89.505 -33.165 89.505 -67 89 C-67 59.96 -67 30.92 -67 1 C-57.615625 0.835 -48.23125 0.67 -38.5625 0.5 C-35.61642822 0.44779297 -32.67035645 0.39558594 -29.63500977 0.34179688 C-27.27880967 0.30071919 -24.92260857 0.2596997 -22.56640625 0.21875 C-21.36012573 0.1971582 -20.15384521 0.17556641 -18.91101074 0.15332031 C-17.73453979 0.13301758 -16.55806885 0.11271484 -15.34594727 0.09179688 C-14.335569 0.07403198 -13.32519073 0.05626709 -12.28419495 0.03796387 C-8.18971729 -0.00936652 -4.0947512 0 0 0 Z " fill="#2D2C30" transform="translate(323,314)"/>
<path d="M0 0 C1.00392807 1.96840045 1.96922951 3.92664666 2.82421875 5.96484375 C5.13972081 11.25592311 7.90913173 14.24786008 13 17 C19.72838036 19.24279345 25.6966737 17.742125 32 15 C36.92721981 12.04366811 38.78085132 8.1077612 41 3 C43.01544563 4.91865869 44.35107494 6.5500174 45.875 8.9375 C49.03402434 13.49021155 52.61354111 16.53096576 58 18 C63.92217273 18.75021766 68.10231996 17.94126076 73.2734375 14.97265625 C75 14 75 14 78 13 C79.16666667 11.08333333 79.16666667 11.08333333 80 9 C80.33 8.34 80.66 7.68 81 7 C81.66 7 82.32 7 83 7 C82.51237308 14.60025405 81.15571384 21.6983886 79 29 C78.52046875 30.68609375 78.52046875 30.68609375 78.03125 32.40625 C74.12500207 44.3253142 67.4526068 54.56642491 60.77734375 65.09375 C59.80486694 66.640625 59.80486694 66.640625 58.81274414 68.21875 C57 71 57 71 55.41967773 73.03125 C50.667432 79.34151155 51.22114727 86.36580816 51.1875 94 C51.16431886 95.36071652 51.13894608 96.72139755 51.11132812 98.08203125 C51.05270607 101.38831491 51.01624062 104.69328182 51 108 C50.67 108 50.34 108 50 108 C50 99.09 50 90.18 50 81 C30.86 81 11.72 81 -8 81 C-8.25 61.25 -8.25 61.25 -8.29785156 55.09472656 C-8.48865899 42.09079267 -9.76731478 31.51954222 -18 21 C-18 20.34 -18 19.68 -18 19 C-17.34773437 18.72027344 -16.69546875 18.44054687 -16.0234375 18.15234375 C-9.45718288 15.1403892 -3.99022513 11.95624026 -1.1953125 4.99609375 C-0.54481127 2.89204867 -0.54481127 2.89204867 0 0 Z " fill="#FEA633" transform="translate(264,206)"/>
<path d="M0 0 C0.33 0 0.66 0 1 0 C0.45725899 12.49732591 -0.45215515 24.91481324 -1.72949219 37.35839844 C-2.00547399 40.05345535 -2.27265748 42.74929366 -2.5390625 45.4453125 C-2.71303385 47.17192624 -2.88749355 48.89849087 -3.0625 50.625 C-3.14169678 51.42486328 -3.22089355 52.22472656 -3.30249023 53.04882812 C-3.62838648 56.18673367 -3.99886411 58.99659233 -5 62 C9.52 62 24.04 62 39 62 C37.57788545 66.26634366 36.51358575 69.14454638 34.3046875 72.8515625 C33.76215332 73.7703418 33.21961914 74.68912109 32.66064453 75.63574219 C32.07138184 76.62219727 31.48211914 77.60865234 30.875 78.625 C29.59779136 80.78837397 28.32179746 82.95246545 27.046875 85.1171875 C26.38107422 86.24608398 25.71527344 87.37498047 25.02929688 88.53808594 C22.01344989 93.66951088 19.06403107 98.83897223 16.11682129 104.01004028 C15.1242157 105.75137591 14.13013772 107.49186374 13.13574219 109.23217773 C9.9551779 114.80135955 6.78471209 120.37604114 3.63186646 125.96096802 C2.15528876 128.57512643 0.67475477 131.18703298 -0.80621338 133.79870605 C-1.51505494 135.05139356 -2.22190562 136.30520984 -2.92669678 137.56018066 C-3.90203621 139.296745 -4.88443752 141.02933739 -5.8671875 142.76171875 C-6.42519043 143.75131592 -6.98319336 144.74091309 -7.55810547 145.76049805 C-9 148 -9 148 -11 149 C-10.36774808 135.41555555 -9.23656156 121.9106031 -7.9375 108.375 C-7.298125 101.65125 -6.65875 94.9275 -6 88 C-20.19 88 -34.38 88 -49 88 C-47.57430231 83.72290694 -46.38334458 80.59847018 -44.234375 76.7890625 C-43.68136719 75.80421875 -43.12835938 74.819375 -42.55859375 73.8046875 C-41.96175781 72.75539063 -41.36492187 71.70609375 -40.75 70.625 C-39.81607422 68.96984375 -39.81607422 68.96984375 -38.86328125 67.28125 C-34.07813746 58.8278169 -29.19209532 50.43490887 -24.27270508 42.05908203 C-19.29487246 33.5638235 -14.4744168 24.98493879 -9.70507812 16.37109375 C-6.61755616 10.81135669 -3.49807681 5.3135344 0 0 Z " fill="#FED643" transform="translate(417,181)"/>
<path d="M0 0 C0.33 0 0.66 0 1 0 C0.49916826 20.43393489 -1.89327057 40.68025489 -4 61 C10.52 61 25.04 61 40 61 C30.66332264 78.11724182 21.16082539 95.12393859 11.27612305 111.93115234 C8.16245173 117.24092907 5.10094473 122.5753285 2.11328125 127.95703125 C1.47712891 129.10236328 0.84097656 130.24769531 0.18554688 131.42773438 C-1.0379295 133.63866717 -2.25688436 135.85210978 -3.47070312 138.06835938 C-4.02048828 139.06287109 -4.57027344 140.05738281 -5.13671875 141.08203125 C-5.85927856 142.40037964 -5.85927856 142.40037964 -6.59643555 143.74536133 C-7.89345626 145.82885172 -9.18630263 147.36261104 -11 149 C-11.17426671 142.13721107 -10.48984708 135.49883075 -9.6875 128.6875 C-9.41392782 126.29949459 -9.14049471 123.91147325 -8.8671875 121.5234375 C-8.65400879 119.68023926 -8.65400879 119.68023926 -8.43652344 117.79980469 C-7.70967365 111.47279681 -7.0127109 105.14250025 -6.3125 98.8125 C-5.879375 94.914375 -5.44625 91.01625 -5 87 C-19.52 87 -34.04 87 -49 87 C-47.65544343 83.63860857 -46.37682824 80.68404867 -44.671875 77.54296875 C-44.2092627 76.69049561 -43.74665039 75.83802246 -43.27001953 74.9597168 C-42.76841309 74.04488525 -42.26680664 73.13005371 -41.75 72.1875 C-40.95698486 70.73694214 -40.95698486 70.73694214 -40.14794922 69.25708008 C-35.69261629 61.15795383 -31.05785788 53.17119618 -26.36987305 45.20507812 C-21.40716382 36.75500428 -16.60941106 28.21893119 -11.88134766 19.63549805 C-8.17401397 12.94661383 -4.39261615 6.2687012 0 0 Z " fill="#FED643" transform="translate(105,182)"/>
<path d="M0 0 C38.28 0 76.56 0 116 0 C116 8.91 116 17.82 116 27 C77.72 27 39.44 27 0 27 C0 18.09 0 9.18 0 0 Z " fill="#E1E2F9" transform="translate(198,287)"/>
<path d="M0 0 C24.75 0 49.5 0 75 0 C71.0307271 7.9385458 67.01928651 15.58699939 62.5 23.1875 C57.42683287 31.79281718 52.47676855 40.45550142 47.625 49.1875 C37.19681888 67.91642681 37.19681888 67.91642681 33 74 C32.67 74 32.34 74 32 74 C32.63225192 60.41555555 33.76343844 46.9106031 35.0625 33.375 C35.701875 26.65125 36.34125 19.9275 37 13 C22.81 13 8.62 13 -6 13 C-4 7 -4 7 0 0 Z " fill="#FDA332" transform="translate(374,256)"/>
<path d="M0 0 C1.65192422 0.01492869 3.30388396 0.02631276 4.95585632 0.03430176 C9.29528308 0.06478803 13.63255336 0.14331585 17.97113037 0.23193359 C22.40168076 0.3139038 26.83258112 0.35033678 31.26367188 0.390625 C39.95150841 0.47631788 48.63759504 0.61277705 57.32421875 0.78125 C55.93994513 4.31189211 54.41442049 7.58480979 52.55859375 10.89453125 C52.0054248 11.88291992 51.45225586 12.87130859 50.88232422 13.88964844 C50.28564941 14.94700195 49.68897461 16.00435547 49.07421875 17.09375 C48.45305176 18.19879883 47.83188477 19.30384766 47.19189453 20.44238281 C42.3638003 29.00376532 37.43810237 37.5063373 32.46728516 45.9855957 C26.67230168 55.87159091 20.98752177 65.81937106 15.32421875 75.78125 C14.99421875 75.78125 14.66421875 75.78125 14.32421875 75.78125 C14.14995204 68.91846107 14.83437167 62.28008075 15.63671875 55.46875 C15.91029093 53.08074459 16.18372404 50.69272325 16.45703125 48.3046875 C16.59915039 47.07588867 16.74126953 45.84708984 16.88769531 44.58105469 C17.6145451 38.25404681 18.31150785 31.92375025 19.01171875 25.59375 C19.44484375 21.695625 19.87796875 17.7975 20.32421875 13.78125 C5.80421875 13.78125 -8.71578125 13.78125 -23.67578125 13.78125 C-23.01578125 12.13125 -22.35578125 10.48125 -21.67578125 8.78125 C-21.44385574 8.05168091 -21.21193024 7.32211182 -20.97297668 6.57043457 C-17.25730729 -2.0978499 -7.99123021 -0.21131183 0 0 Z " fill="#FEA432" transform="translate(79.67578125,255.21875)"/>
<path d="M0 0 C19.14 0 38.28 0 58 0 C58 8.91 58 17.82 58 27 C38.86 27 19.72 27 0 27 C0 18.09 0 9.18 0 0 Z " fill="#FFFEFD" transform="translate(198,287)"/>
<path d="M0 0 C14.52 0 29.04 0 44 0 C42.81043956 20.22252747 42.81043956 20.22252747 42.0625 27.875 C41.95131836 29.15310547 41.95131836 29.15310547 41.83789062 30.45703125 C41.71897461 31.68099609 41.71897461 31.68099609 41.59765625 32.9296875 C41.53070557 33.64366699 41.46375488 34.35764648 41.39477539 35.09326172 C41 37 41 37 39 40 C33.44232901 34.46758802 27.88850659 28.93133483 22.33740234 23.39233398 C20.44697429 21.50638658 18.5553081 19.62169386 16.66259766 17.73803711 C13.94981564 15.03732137 11.24021833 12.33344662 8.53125 9.62890625 C7.67817261 8.78099014 6.82509521 7.93307404 5.94616699 7.0594635 C5.16535767 6.27872971 4.38454834 5.49799591 3.58007812 4.69360352 C2.88724731 4.00299332 2.1944165 3.31238312 1.48059082 2.60084534 C0 1 0 1 0 0 Z " fill="#C80223" transform="translate(56,269)"/>
<path d="M0 0 C3.38746512 1.12915504 4.37451366 2.22743073 6.6875 4.875 C7.31011719 5.57367188 7.93273437 6.27234375 8.57421875 6.9921875 C10 9 10 9 10 12 C8.67744688 13.67523395 7.34294481 15.34106818 6 17 C4.75983331 19.6794645 4.75983331 19.6794645 4 22 C3.67 22 3.34 22 3 22 C2.95101563 20.91460937 2.90203125 19.82921875 2.8515625 18.7109375 C2.77648014 17.26560216 2.70093472 15.82029081 2.625 14.375 C2.57859375 13.30572266 2.57859375 13.30572266 2.53125 12.21484375 C2.28979845 7.82847392 1.60657269 4.1405166 0 0 Z " fill="#C80324" transform="translate(303,127)"/>
<path d="M0 0 C1.98 1.65 3.96 3.3 6 5 C5.39009109 8.55780196 4.4216319 11.6828589 3 15 C2.67 15 2.34 15 2 15 C1.93941406 14.25234375 1.87882812 13.5046875 1.81640625 12.734375 C1.73261719 11.74953125 1.64882813 10.7646875 1.5625 9.75 C1.48128906 8.77546875 1.40007812 7.8009375 1.31640625 6.796875 C1.04925416 4.43538247 0.64628032 2.28098935 0 0 Z " fill="#D01A2C" transform="translate(262,119)"/>
</svg>
